<svg width="96" height="21" viewBox="0 0 96 21" fill="none" xmlns="http://www.w3.org/2000/svg">
<path d="M12.6758 17.0156C12.6758 17.4518 12.6204 17.8424 12.5098 18.1875C12.3991 18.5391 12.2526 18.8451 12.0703 19.1055C11.888 19.3724 11.6764 19.597 11.4355 19.7793C11.1947 19.9681 10.9408 20.1211 10.6738 20.2383C10.4134 20.3555 10.1465 20.4401 9.87305 20.4922C9.60612 20.5508 9.35221 20.5801 9.11133 20.5801H4.53125V18.041H9.11133C9.45638 18.041 9.71354 17.9531 9.88281 17.7773C10.0521 17.6016 10.1367 17.3477 10.1367 17.0156V8.99805C10.1367 8.66602 10.0521 8.41536 9.88281 8.24609C9.71354 8.07031 9.45638 7.98242 9.11133 7.98242H4.53125C4.21875 7.98242 3.97135 8.08008 3.78906 8.27539C3.60677 8.46419 3.51562 8.70508 3.51562 8.99805V12.4355C3.51562 12.7676 3.60352 13.0215 3.7793 13.1973C3.95508 13.373 4.21224 13.4609 4.55078 13.4609H9.11133V16H4.53125C4.29036 16 4.03646 15.974 3.76953 15.9219C3.5026 15.8633 3.23568 15.7754 2.96875 15.6582C2.70833 15.541 2.45768 15.3913 2.2168 15.209C1.97591 15.0202 1.76432 14.7956 1.58203 14.5352C1.39974 14.2682 1.25326 13.9622 1.14258 13.6172C1.0319 13.2656 0.976562 12.8717 0.976562 12.4355V8.99805C0.976562 8.75716 1.0026 8.50326 1.05469 8.23633C1.11328 7.9694 1.20117 7.70573 1.31836 7.44531C1.43555 7.17839 1.58529 6.92448 1.76758 6.68359C1.95638 6.44271 2.18099 6.23112 2.44141 6.04883C2.70833 5.86654 3.01432 5.72005 3.35938 5.60938C3.70443 5.4987 4.09505 5.44336 4.53125 5.44336H9.11133C9.35221 5.44336 9.60612 5.47266 9.87305 5.53125C10.1465 5.58333 10.4134 5.66797 10.6738 5.78516C10.9408 5.90234 11.1947 6.05534 11.4355 6.24414C11.6764 6.42643 11.888 6.65104 12.0703 6.91797C12.2526 7.17839 12.3991 7.48112 12.5098 7.82617C12.6204 8.17122 12.6758 8.56185 12.6758 8.99805V17.0156ZM17.5781 3.27539H15.0391V0.980469H17.5781V3.27539ZM17.5781 16H15.0391V5.44336H17.5781V16ZM29.6191 7.98242H25.1855V16H22.6172V7.98242H19.3164V5.44336H22.6172V1.99609H25.1855V5.44336H29.6191V7.98242ZM32.8418 14.7207C32.8418 14.8965 32.806 15.0625 32.7344 15.2188C32.6693 15.3685 32.5781 15.502 32.4609 15.6191C32.3503 15.7298 32.2168 15.8177 32.0605 15.8828C31.9108 15.9479 31.7513 15.9805 31.582 15.9805C31.4062 15.9805 31.2402 15.9479 31.084 15.8828C30.9342 15.8177 30.8008 15.7298 30.6836 15.6191C30.5729 15.502 30.485 15.3685 30.4199 15.2188C30.3548 15.0625 30.3223 14.8965 30.3223 14.7207C30.3223 14.5514 30.3548 14.3919 30.4199 14.2422C30.485 14.0859 30.5729 13.9525 30.6836 13.8418C30.8008 13.7246 30.9342 13.6335 31.084 13.5684C31.2402 13.4967 31.4062 13.4609 31.582 13.4609C31.7513 13.4609 31.9108 13.4967 32.0605 13.5684C32.2168 13.6335 32.3503 13.7246 32.4609 13.8418C32.5781 13.9525 32.6693 14.0859 32.7344 14.2422C32.806 14.3919 32.8418 14.5514 32.8418 14.7207ZM44.0625 7.98242H38.3496C38.0046 7.98242 37.7441 8.07031 37.5684 8.24609C37.3926 8.41536 37.3047 8.66602 37.3047 8.99805V16H34.7656V8.99805C34.7656 8.56185 34.821 8.17122 34.9316 7.82617C35.0423 7.48112 35.1888 7.17839 35.3711 6.91797C35.5599 6.65104 35.7747 6.42643 36.0156 6.24414C36.2565 6.05534 36.5072 5.90234 36.7676 5.78516C37.0345 5.66797 37.3014 5.58333 37.5684 5.53125C37.8418 5.47266 38.0957 5.44336 38.3301 5.44336H44.0625V7.98242ZM55.8203 12.5039C55.8203 12.8555 55.7585 13.2363 55.6348 13.6465C55.5111 14.0501 55.3092 14.4277 55.0293 14.7793C54.7559 15.1243 54.3945 15.4141 53.9453 15.6484C53.5026 15.8828 52.9622 16 52.3242 16H47.7441C47.3926 16 47.0117 15.9382 46.6016 15.8145C46.1979 15.6908 45.8203 15.4922 45.4688 15.2188C45.1237 14.9388 44.834 14.5775 44.5996 14.1348C44.3652 13.6855 44.248 13.1419 44.248 12.5039C44.248 12.1523 44.3099 11.7715 44.4336 11.3613C44.5573 10.9512 44.7559 10.5736 45.0293 10.2285C45.3092 9.87695 45.6706 9.58398 46.1133 9.34961C46.5625 9.11523 47.1061 8.99805 47.7441 8.99805H52.3242V11.4199H47.7441C47.3991 11.4199 47.1322 11.5273 46.9434 11.7422C46.7546 11.9505 46.6602 12.2109 46.6602 12.5234C46.6602 12.8555 46.7676 13.1159 46.9824 13.3047C47.2038 13.487 47.4642 13.5781 47.7637 13.5781H52.3242C52.6693 13.5781 52.9362 13.474 53.125 13.2656C53.3138 13.0573 53.4082 12.7969 53.4082 12.4844V8.93945C53.4082 8.60742 53.304 8.34375 53.0957 8.14844C52.8939 7.95312 52.6367 7.85547 52.3242 7.85547H46.748V5.44336H52.3242C52.6758 5.44336 53.0534 5.50521 53.457 5.62891C53.8672 5.7526 54.2448 5.95443 54.5898 6.23438C54.9414 6.50781 55.2344 6.86914 55.4688 7.31836C55.7031 7.76107 55.8203 8.30143 55.8203 8.93945V12.5039ZM69.6875 16H67.1484V10.1406C67.1484 9.80859 67.0898 9.51237 66.9727 9.25195C66.862 8.98503 66.709 8.75716 66.5137 8.56836C66.3184 8.37956 66.0872 8.23633 65.8203 8.13867C65.5599 8.03451 65.2767 7.98242 64.9707 7.98242H60.5273V16H57.9883V6.70312C57.9883 6.52734 58.0208 6.36458 58.0859 6.21484C58.151 6.05859 58.2422 5.92513 58.3594 5.81445C58.4766 5.69727 58.6133 5.60612 58.7695 5.54102C58.9258 5.47591 59.0918 5.44336 59.2676 5.44336H64.9902C65.3092 5.44336 65.6445 5.47917 65.9961 5.55078C66.3542 5.6224 66.7057 5.73958 67.0508 5.90234C67.4023 6.05859 67.7344 6.26042 68.0469 6.50781C68.3659 6.7487 68.6458 7.04492 68.8867 7.39648C69.1341 7.74154 69.3294 8.14193 69.4727 8.59766C69.6159 9.05339 69.6875 9.56771 69.6875 10.1406V16ZM84.3164 16H80.6543L75.5371 11.0586C75.2507 10.7982 75.1172 10.4727 75.1367 10.082C75.1497 9.89974 75.1953 9.73047 75.2734 9.57422C75.3581 9.41146 75.472 9.27474 75.6152 9.16406L80.2539 5.42383H84.3164L78.3398 10.2383L84.3164 16ZM74.4922 16H71.9531V0.980469H74.4922V16ZM95.9473 12.4355C95.9473 12.8717 95.8919 13.2656 95.7812 13.6172C95.6706 13.9622 95.5241 14.2682 95.3418 14.5352C95.1595 14.7956 94.9479 15.0202 94.707 15.209C94.4661 15.3913 94.2122 15.541 93.9453 15.6582C93.6849 15.7754 93.418 15.8633 93.1445 15.9219C92.8776 15.974 92.6237 16 92.3828 16H85.5078V13.4609H92.3633C92.7083 13.4609 92.9688 13.373 93.1445 13.1973C93.3203 13.0215 93.4082 12.7676 93.4082 12.4355C93.3757 11.7585 93.0339 11.4199 92.3828 11.4199H88.4473C87.8874 11.4199 87.4121 11.3223 87.0215 11.127C86.6309 10.9316 86.3118 10.6875 86.0645 10.3945C85.8236 10.1016 85.6478 9.78581 85.5371 9.44727C85.4329 9.10872 85.3809 8.79297 85.3809 8.5C85.3809 7.93359 85.4818 7.45833 85.6836 7.07422C85.8854 6.68359 86.1393 6.36784 86.4453 6.12695C86.7513 5.88607 87.0833 5.71354 87.4414 5.60938C87.7995 5.4987 88.1348 5.44336 88.4473 5.44336H94.6875V7.98242H88.4668C88.3366 7.98242 88.2324 7.9987 88.1543 8.03125C88.0827 8.05729 88.0273 8.09635 87.9883 8.14844C87.9557 8.19401 87.9362 8.24609 87.9297 8.30469C87.9232 8.35677 87.9199 8.40885 87.9199 8.46094C87.9264 8.5651 87.946 8.64648 87.9785 8.70508C88.0111 8.76367 88.0501 8.80599 88.0957 8.83203C88.1478 8.85807 88.2031 8.87435 88.2617 8.88086C88.3268 8.88086 88.3887 8.88086 88.4473 8.88086H92.3828C93.0339 8.88086 93.5872 8.99805 94.043 9.23242C94.4987 9.4668 94.8665 9.76302 95.1465 10.1211C95.4264 10.4727 95.6283 10.8568 95.752 11.2734C95.8822 11.6901 95.9473 12.0775 95.9473 12.4355Z" fill="#18181B"/>
</svg>
